<?xml version="1.0" encoding="utf-8"?>
<!-- Generator: Adobe Illustrator 25.2.3, SVG Export Plug-In . SVG Version: 6.00 Build 0)  -->
<svg version="1.1" id="Capa_1" xmlns="http://www.w3.org/2000/svg" xmlns:xlink="http://www.w3.org/1999/xlink" x="0px" y="0px"
	 viewBox="0 0 604.3 604.3" style="enable-background:new 0 0 604.3 604.3;" xml:space="preserve">
<style type="text/css">
	.st0{fill:#FFFFFF;}
</style>
<g>
	<g id="google-plus">
		<path class="st0" d="M516.4,255v-76.5h-51V255h-76.5v51h76.5v76.5h51V306h76.5v-51H516.4z M320,341.7L292,321.3
			c-10.2-7.6-20.4-17.9-20.4-35.7s12.8-33.1,25.5-40.8c33.1-25.5,66.3-53.6,66.3-109.7c0-53.6-33.1-84.2-51-99.4h43.4L386.3,0H228.2
			C116,0,59.9,71.4,59.9,147.9c0,58.6,45.9,122.4,127.5,122.4h20.4c-2.6,7.6-10.2,20.4-10.2,33.1c0,25.5,10.2,35.7,22.9,51
			c-35.7,2.5-102,10.2-150.4,40.8c-45.9,28-58.7,66.3-58.7,94.4c0,58.7,53.5,114.8,168.3,114.8c137.7,0,204-76.5,204-150.4
			C383.8,400.4,355.7,372.3,320,341.7z M126.2,109.7c0-56.1,33.2-81.6,68.8-81.6c66.3,0,102,89.2,102,140.2
			c0,66.3-53.6,79.1-73.9,79.1C159.4,247.4,126.2,168.3,126.2,109.7z M218,568.7c-84.2,0-137.7-38.2-137.7-94.4
			c0-56.1,51-74,66.3-81.6c33.2-10.2,76.5-12.8,84.2-12.8s12.8,0,17.9,0c61.2,43.4,86.7,61.2,86.7,102
			C335.3,530.4,286.9,568.7,218,568.7z"/>
	</g>
</g>
</svg>
