<?xml version="1.0" encoding="utf-8"?>
<!-- Generator: Adobe Illustrator 25.2.3, SVG Export Plug-In . SVG Version: 6.00 Build 0)  -->
<svg version="1.1" id="Layer_1" xmlns="http://www.w3.org/2000/svg" xmlns:xlink="http://www.w3.org/1999/xlink" x="0px" y="0px"
	 viewBox="0 0 512 512" style="enable-background:new 0 0 512 512;" xml:space="preserve">
<style type="text/css">
	.st0{fill:#FFFFFF;}
</style>
<g>
	<path class="st0" d="M512,144c0,16.5-2.9,32.9-8.7,48.9c-25.6,70.6-67.4,136.1-120.8,189.5S263.6,477.6,193,503.3
		c-22.7,8.2-46.1,10.7-69.6,7.2c-22-3.2-43.4-11.8-61.8-24.7c-18.5-13-33.9-30.2-44.5-50C5.7,414.8,0,391.8,0,367.6
		c0-7.5,5.3-14.1,12.6-15.6l117.2-25.1c5.3-1.1,10.8,0.5,14.7,4.3l42.9,42.9c80.5-40.5,146.2-106.2,186.6-186.6l-42.9-42.9
		c-3.8-3.8-5.5-9.4-4.3-14.7l25.1-117.2C353.5,5.3,360,0,367.6,0c24.3,0,47.2,5.7,68.3,17.1c19.7,10.6,37,26,50,44.5
		c12.9,18.4,21.4,39.8,24.7,61.8C511.5,130.3,512,137.2,512,144L512,144z M32.7,380.4c3.5,32,20.3,60.4,47.2,79.2
		c30.3,21.2,67.5,26.1,102.1,13.6C317.8,423.9,423.9,317.8,473.2,182c12.6-34.6,7.6-71.9-13.6-102.1c-18.9-26.9-47.3-43.7-79.2-47.2
		L359.9,128l44.8,44.8c4.8,4.8,6,12,3.2,18.1c-44.7,95.2-121.8,172.2-217,217c-6.1,2.9-13.3,1.6-18.1-3.2L128,359.9L32.7,380.4z"/>
</g>
</svg>
